<?xml version="1.0" encoding="UTF-8" standalone="no"?><!DOCTYPE svg PUBLIC "-//W3C//DTD SVG 1.1//EN" "http://www.w3.org/Graphics/SVG/1.1/DTD/svg11.dtd"><svg width="100%" height="100%" viewBox="0 0 200 200" version="1.1" xmlns="http://www.w3.org/2000/svg" xmlns:xlink="http://www.w3.org/1999/xlink" xml:space="preserve" xmlns:serif="http://www.serif.com/" style="fill-rule:evenodd;clip-rule:evenodd;stroke-linecap:round;stroke-miterlimit:1.5;"><g id="Artboard8"><ellipse cx="99.996" cy="100.007" rx="90.466" ry="90.466" style="fill:none;stroke:#fff;stroke-width:17.3px;"/><path d="M132.961,127.396c0,-38.04 -49.022,-30.188 -49.022,-56.886c0,-10.47 7.165,-17.624 18.153,-17.624c9.769,0 15.01,3.664 21.64,10.121l6.791,-7.678c-6.269,-6.621 -13.246,-11.844 -24.428,-12.889l0,-17.271l-9.573,0l0,17.445c-14.847,2.089 -25.122,13.064 -25.122,28.594c0,34.202 49.197,27.222 49.197,57.061c0,11.342 -6.989,18.845 -20.246,18.845c-10.994,0 -20.069,-5.409 -27.384,-11.691l-5.928,8.725c7.147,6.801 18.123,12.38 29.483,13.426l0,17.257l9.573,0l0,-17.432c16.243,-2.092 26.866,-13.426 26.866,-30.003Z" style="fill:#fff;fill-rule:nonzero;stroke:#fff;stroke-width:8.33px;stroke-linecap:butt;stroke-linejoin:round;stroke-miterlimit:1.41421;"/></g></svg>